<?xml version="1.0" encoding="UTF-8" standalone="no"?>
<!-- Created with Inkscape (http://www.inkscape.org/) -->

<svg
   width="82mm"
   height="57mm"
   viewBox="0 0 82 57"
   version="1.1"
   id="svg5"
   inkscape:version="1.1.2 (b8e25be833, 2022-02-05)"
   sodipodi:docname="logo_without_text.svg"
   xmlns:inkscape="http://www.inkscape.org/namespaces/inkscape"
   xmlns:sodipodi="http://sodipodi.sourceforge.net/DTD/sodipodi-0.dtd"
   xmlns="http://www.w3.org/2000/svg"
   xmlns:svg="http://www.w3.org/2000/svg">
  <sodipodi:namedview
     id="namedview7"
     pagecolor="#ffffff"
     bordercolor="#666666"
     borderopacity="1.0"
     inkscape:pageshadow="2"
     inkscape:pageopacity="0.0"
     inkscape:pagecheckerboard="0"
     inkscape:document-units="mm"
     showgrid="false"
     inkscape:zoom="1.28"
     inkscape:cx="201.5625"
     inkscape:cy="255.46875"
     inkscape:window-width="1920"
     inkscape:window-height="1009"
     inkscape:window-x="-8"
     inkscape:window-y="-8"
     inkscape:window-maximized="1"
     inkscape:current-layer="layer1" />
  <defs
     id="defs2">
    <inkscape:path-effect
       effect="bspline"
       id="path-effect1084"
       is_visible="true"
       lpeversion="1"
       weight="33.333333"
       steps="2"
       helper_size="0"
       apply_no_weight="true"
       apply_with_weight="true"
       only_selected="false" />
  </defs>
  <g
     inkscape:label="Ebene 1"
     inkscape:groupmode="layer"
     id="layer1">
    <g
       id="g2860"
       transform="translate(-43.103542,-29.814007)">
      <rect
         style="fill:#e6e6e6;stroke:#707070;stroke-width:1;stroke-miterlimit:4;stroke-dasharray:none"
         id="rect846-2"
         width="31.203968"
         height="10.413528"
         x="68.464745"
         y="31.314007"
         ry="5.2067642" />
      <rect
         style="fill:#e6e6e6;stroke:#707070;stroke-width:1;stroke-miterlimit:4;stroke-dasharray:none"
         id="rect846-2-0"
         width="14.576272"
         height="4.9479423"
         x="50.188457"
         y="34.952171"
         ry="1.7749687" />
      <rect
         style="fill:#e6e6e6;stroke:#707070;stroke-width:1;stroke-miterlimit:4;stroke-dasharray:none"
         id="rect846"
         width="78.926376"
         height="48.926373"
         x="44.603542"
         y="36.542015"
         ry="4.1341147" />
      <path
         style="fill:none;stroke:#000000;stroke-width:0.25;stroke-linecap:butt;stroke-linejoin:miter;stroke-miterlimit:4;stroke-dasharray:none;stroke-opacity:1"
         d="m 45.1027,51.056314 c 25.976284,0 51.952305,0 77.92806,0"
         id="path1082"
         inkscape:path-effect="#path-effect1084"
         inkscape:original-d="m 45.1027,51.056314 c 25.976284,2.65e-4 51.952305,2.65e-4 77.92806,0" />
      <circle
         style="fill:#e6e6e6;stroke:#707070;stroke-width:1;stroke-miterlimit:4;stroke-dasharray:none"
         id="path1190"
         cx="84.066727"
         cy="62.218422"
         r="19.84375" />
      <path
         style="fill:none;stroke:#707070;stroke-width:1;stroke-miterlimit:4;stroke-dasharray:none"
         id="path1190-4"
         sodipodi:type="arc"
         sodipodi:cx="84.327888"
         sodipodi:cy="62.268948"
         sodipodi:rx="16.668758"
         sodipodi:ry="16.668758"
         sodipodi:start="5.0472277"
         sodipodi:end="6.031777"
         sodipodi:arc-type="arc"
         d="M 89.805523,46.525917 A 16.668758,16.668758 0 0 1 100.47263,58.12229"
         sodipodi:open="true" />
      <circle
         style="fill:#e6e6e6;stroke:#707070;stroke-width:1;stroke-miterlimit:4;stroke-dasharray:none"
         id="path1190-2"
         cx="84.066727"
         cy="62.218422"
         r="7.9757423" />
      <circle
         style="fill:#e6e6e6;stroke:#707070;stroke-width:1;stroke-miterlimit:4;stroke-dasharray:none"
         id="path1190-2-0"
         cx="63.975422"
         cy="79.180695"
         r="1.6541098" />
      <path
         style="fill:#f9f9f9;stroke:none;stroke-width:2.95276;stroke-miterlimit:4;stroke-dasharray:none"
         d="m 171.09375,171.05495 c 0,-16.33608 0.23411,-21.19003 1.10213,-22.85156 1.65424,-3.16646 5.32559,-6.3425 8.32652,-7.20315 1.69939,-0.48738 51.81811,-0.75963 137.83182,-0.74871 131.09077,0.0166 135.25984,0.0618 138.43005,1.50117 2.05493,0.93297 4.08558,2.71768 5.46875,4.80641 l 2.20011,3.32239 0.24191,20.95769 0.24191,20.95769 -41.64816,-0.0521 -41.64816,-0.0521 -4.39025,-5.67073 C 368.50255,174.72272 352.58354,164.45606 337.5,160.38574 c -5.69865,-1.53779 -8.52458,-1.79199 -19.92187,-1.79199 -14.50253,0 -19.38304,0.92272 -30.97782,5.85674 -10.80839,4.59939 -22.86599,14.03795 -30.17221,23.6185 l -2.84292,3.72789 h -41.24572 -41.24571 z"
         id="path2652"
         transform="scale(0.26458333)" />
      <path
         style="fill:#f9f9f9;stroke:none;stroke-width:2.95276;stroke-miterlimit:4;stroke-dasharray:none"
         d="m 308.92126,261.51426 c -8.28708,-2.96258 -14.95438,-9.82679 -17.52428,-18.04186 -1.96069,-6.2676 -1.96069,-10.3647 0,-16.63229 3.81382,-12.19142 15.45189,-20.14432 28.14923,-19.23583 9.84629,0.7045 17.9103,5.97247 22.72012,14.84233 2.51638,4.64051 2.65555,5.30655 2.65555,12.70964 0,7.40309 -0.13917,8.06913 -2.65555,12.70964 -5.01193,9.24259 -13.06301,14.31117 -23.50087,14.79505 -4.26212,0.19758 -6.96447,-0.1172 -9.8442,-1.14668 z"
         id="path2691"
         transform="scale(0.26458333)" />
      <path
         style="fill:#f9f9f9;stroke:none;stroke-width:2.95276;stroke-miterlimit:4;stroke-dasharray:none"
         d="m 240.53854,302.95208 c -0.69208,-0.15969 -1.6587,-1.16906 -2.14804,-2.24305 -0.77125,-1.6927 -0.6304,-2.21202 1.05779,-3.90022 1.5777,-1.57769 2.23885,-1.79158 3.48178,-1.12639 2.20721,1.18127 3.1743,3.22859 2.29828,4.86544 -0.91075,1.70175 -3.02869,2.78751 -4.68981,2.40422 z"
         id="path2730"
         transform="scale(0.26458333)" />
    </g>
  </g>
</svg>
